<?xml version="1.0" ?>
<!DOCTYPE svg  PUBLIC '-//W3C//DTD SVG 1.1//EN'  'http://www.w3.org/Graphics/SVG/1.1/DTD/svg11.dtd'>
<!-- Uploaded to: SVG Repo, www.svgrepo.com, Generator: SVG Repo Mixer Tools -->
<svg width="800px" height="800px" viewBox="0 0 32 32" enable-background="new 0 0 32 32" version="1.1" xml:space="preserve" xmlns="http://www.w3.org/2000/svg" xmlns:xlink="http://www.w3.org/1999/xlink">
<g id="Energy20"/>
<g id="Energy19"/>
<g id="Energy18"/>
<g id="Energy17"/>
<g id="Energy16"/>
<g id="Energy15"/>
<g id="Energy14"/>
<g id="Energy13"/>
<g id="Energy12"/>
<g id="Energy11"/>
<g id="Energy10"/>
<g id="Energy09"/>
<g id="Energy08"/>
<g id="Energy07"/>
<g id="Energy06">
<g>
<path d="M20.49,27c0,0.55-0.45,1-1,1c-0.01,0-0.01,0-0.02,0H12.53c-0.3,0-0.58-0.13-0.77-0.36    c-0.19-0.22-0.27-0.52-0.21-0.8101l2.35-13.34c0.05-0.34,0.28-0.62,0.59-0.75c0.32-0.13,0.67-0.1,0.96,0.1    c0.31,0.21,0.79,0.21,1.1,0c0.29-0.2,0.65-0.23,0.96-0.1s0.54,0.41,0.59,0.75l2.32,13.14C20.47,26.75,20.49,26.87,20.49,27z" fill="#1777BA"/>
</g>
<g>
<path d="M16,11c-0.5522,0-1-0.4478-1-1V2c0-0.5522,0.4478-1,1-1s1,0.4478,1,1v8C17,10.5522,16.5522,11,16,11z" fill="#FFB841"/>
</g>
<g>
<path d="M6.001,19c-0.3433,0-0.6772-0.1763-0.8633-0.4937c-0.2798-0.4766-0.1201-1.0894,0.356-1.3687    l8.3301-4.8901c0.4756-0.2798,1.0894-0.1206,1.3687,0.356c0.2798,0.4766,0.1201,1.0894-0.356,1.3687l-8.3301,4.8901    C6.3472,18.9556,6.1729,19,6.001,19z" fill="#FFB841"/>
</g>
<g>
<path d="M25.999,19c-0.1719,0-0.3462-0.0444-0.5054-0.1377l-8.3301-4.8901    c-0.4761-0.2793-0.6357-0.8921-0.356-1.3687c0.2788-0.4756,0.8921-0.6348,1.3687-0.356l8.3301,4.8901    c0.4761,0.2793,0.6357,0.8921,0.356,1.3687C26.6763,18.8232,26.3423,19,25.999,19z" fill="#FFB841"/>
</g>
<g>
<path d="M19,12c0,0.59-0.17,1.17-0.49,1.66c-0.24,0.33-0.51,0.6-0.81,0.81C17.19,14.82,16.61,15,16,15    s-1.19-0.18-1.69-0.52c-0.31-0.22-0.58-0.49-0.79-0.79C13.17,13.17,13,12.59,13,12c0-1.65,1.35-3,3-3S19,10.35,19,12z" fill="#FF982C"/>
</g>
<g>
<path d="M24,28.5c0,1.38-1.12,2.5-2.5,2.5h-11C9.12,31,8,29.88,8,28.5S9.12,26,10.5,26h11    C22.88,26,24,27.12,24,28.5z" fill="#664BA7"/>
</g>
</g>
<g id="Energy05"/>
<g id="Energy04"/>
<g id="Energy03"/>
<g id="Energy02"/>
<g id="Energy01"/>
</svg>