<?xml version="1.0" ?>
<!DOCTYPE svg  PUBLIC '-//W3C//DTD SVG 1.1//EN'  'http://www.w3.org/Graphics/SVG/1.1/DTD/svg11.dtd'>
<!-- Uploaded to: SVG Repo, www.svgrepo.com, Generator: SVG Repo Mixer Tools -->
<svg width="800px" height="800px" viewBox="0 0 32 32" enable-background="new 0 0 32 32" version="1.1" xml:space="preserve" xmlns="http://www.w3.org/2000/svg" xmlns:xlink="http://www.w3.org/1999/xlink">
<g id="Energy20"/>
<g id="Energy19"/>
<g id="Energy18"/>
<g id="Energy17"/>
<g id="Energy16"/>
<g id="Energy15"/>
<g id="Energy14"/>
<g id="Energy13"/>
<g id="Energy12"/>
<g id="Energy11"/>
<g id="Energy10"/>
<g id="Energy09"/>
<g id="Energy08">
<g>
<path d="M21,26v4c0,0.55-0.45,1-1,1h-8c-0.55,0-1-0.45-1-1v-4c0-0.55,0.45-1,1-1h8C20.55,25,21,25.45,21,26z" fill="#FFB841"/>
</g>
<g>
<path d="M14,3.5V10c0,0.55-0.45,1-1,1h-3c-0.55,0-1-0.45-1-1V3.5C9,2.12,10.12,1,11.5,1S14,2.12,14,3.5z" fill="#FFB841"/>
</g>
<g>
<path d="M23,3.5V10c0,0.55-0.45,1-1,1h-3c-0.55,0-1-0.45-1-1V3.5C18,2.12,19.12,1,20.5,1S23,2.12,23,3.5z" fill="#FFB841"/>
</g>
<g>
<path d="M26.88,15.48l-6,11C20.7,26.8,20.37,27,20,27h-8c-0.37,0-0.7-0.2-0.88-0.52l-6-11    c-0.17-0.31-0.16-0.69,0.02-0.99S5.65,14,6,14h20c0.35,0,0.68,0.19,0.86,0.49S27.05,15.17,26.88,15.48z" fill="#E0554F"/>
</g>
<g>
<path d="M27,10v5c0,0.55-0.45,1-1,1H6c-0.55,0-1-0.45-1-1v-5c0-0.55,0.45-1,1-1h20C26.55,9,27,9.45,27,10z" fill="#BC494F"/>
</g>
</g>
<g id="Energy07"/>
<g id="Energy06"/>
<g id="Energy05"/>
<g id="Energy04"/>
<g id="Energy03"/>
<g id="Energy02"/>
<g id="Energy01"/>
</svg>