<?xml version="1.0" ?>
<!DOCTYPE svg  PUBLIC '-//W3C//DTD SVG 1.1//EN'  'http://www.w3.org/Graphics/SVG/1.1/DTD/svg11.dtd'>
<!-- Uploaded to: SVG Repo, www.svgrepo.com, Generator: SVG Repo Mixer Tools -->
<svg width="800px" height="800px" viewBox="0 0 32 32" enable-background="new 0 0 32 32" version="1.1" xml:space="preserve" xmlns="http://www.w3.org/2000/svg" xmlns:xlink="http://www.w3.org/1999/xlink">
<g id="Energy20"/>
<g id="Energy19"/>
<g id="Energy18"/>
<g id="Energy17"/>
<g id="Energy16"/>
<g id="Energy15"/>
<g id="Energy14"/>
<g id="Energy13"/>
<g id="Energy12"/>
<g id="Energy11"/>
<g id="Energy10"/>
<g id="Energy09"/>
<g id="Energy08"/>
<g id="Energy07">
<g>
<path d="M20,20v10c0,0.55-0.45,1-1,1h-6c-0.55,0-1-0.45-1-1V20c0-0.55,0.45-1,1-1h6C19.55,19,20,19.45,20,20z" fill="#FFB841"/>
</g>
<path d="M31.01,20c0,0.55-0.45,1-1,1C30,21,30,21,29.99,21h-28c-0.3,0-0.59-0.14-0.78-0.37   c-0.19-0.24-0.26-0.55-0.2-0.85l4-18C5.12,1.33,5.52,1,5.99,1h20c0.47,0,0.87,0.33,0.98,0.78l3.95,17.81   C30.98,19.72,31.01,19.86,31.01,20z" fill="#2FA3D5"/>
<path d="M30.9341,19.5942l-3.958-17.811C26.8745,1.3257,26.4688,1,26,1H6C5.5313,1,5.1255,1.3257,5.0239,1.7832   l-4,18c-0.0659,0.2959,0.0063,0.606,0.1958,0.8423C1.4097,20.8623,1.6968,21,2,21h28c0.0068,0,0.0137-0.0005,0.02,0   c0.5522,0,1-0.4478,1-1C31.02,19.8555,30.9893,19.7183,30.9341,19.5942z M11.1804,13l0.6667-4h8.3058l0.6667,4H11.1804z    M21.1529,15l0.6667,4H10.1804l0.6667-4H21.1529z M5.4689,9h4.3507l-0.6667,4H4.58L5.4689,9z M12.1804,7l0.6667-4h6.3058l0.6667,4   H12.1804z M22.1804,9h4.3507l0.8889,4h-4.5729L22.1804,9z M26.0867,7h-4.2396l-0.6667-4h4.0173L26.0867,7z M6.8022,3h4.0173   l-0.6667,4H5.9133L6.8022,3z M4.1355,15h4.6841l-0.6667,4H3.2466L4.1355,15z M23.8471,19l-0.6667-4h4.6841l0.8889,4H23.8471z" fill="#1777BA"/>
<g>
<path d="M25,31H7c-0.5522,0-1-0.4478-1-1s0.4478-1,1-1h18c0.5522,0,1,0.4478,1,1S25.5522,31,25,31z" fill="#664BA7"/>
</g>
</g>
<g id="Energy06"/>
<g id="Energy05"/>
<g id="Energy04"/>
<g id="Energy03"/>
<g id="Energy02"/>
<g id="Energy01"/>
</svg>